<svg data-v-0dd9719b="" version="1.0" xmlns="http://www.w3.org/2000/svg" xmlns:xlink="http://www.w3.org/1999/xlink" width="100%" height="100%" viewBox="0 0 340.000000 250.000000" preserveAspectRatio="xMidYMid meet" color-interpolation-filters="sRGB" style="margin: auto;"> <rect data-v-0dd9719b="" x="0" y="0" width="100%" height="100%" fill="#fff" fill-opacity="1" class="background"></rect> <rect data-v-0dd9719b="" x="0" y="0" width="100%" height="100%" fill="url(#watermark)" fill-opacity="1" class="watermarklayer"></rect> <g data-v-0dd9719b="" fill="#333" class="icon-text-wrapper icon-svg-group iconsvg" transform="translate(47.17499542236328,95)"><g class="iconsvg-imagesvg" transform="translate(0,0)"><g><rect fill="#333" fill-opacity="0" stroke-width="2" x="0" y="0" width="60" height="60" class="image-rect"></rect> <svg x="0" y="0" width="60" height="60" filtersec="colorsb2031127060" class="image-svg-svg primary" style="overflow: visible;"><svg xmlns="http://www.w3.org/2000/svg" viewBox="-8.642673492431641e-7 0 81.5199966430664 81.5199966430664"><title>资源 20</title><path d="M36.13 13.15l-.06-.06-10.95-11A42.18 42.18 0 0 1 30.5.39L32.17 0l8.56 8.56L49.29 0q.84.18 1.68.39a40.56 40.56 0 0 1 5.37 1.75l-11 11-4.6-4.6z" fill="#fcc83a"></path><path d="M36.13 13.15l4.66-4.66 4.6 4.6a6.61 6.61 0 0 1-9.26.06z" fill="#efa51f"></path><path d="M13.69 9.09A42 42 0 0 1 19 5.22l21.73 21.72L36 31.42zm48.76-3.87a42 42 0 0 1 5.32 3.87L45.44 31.42l-4.71-4.48z" fill="#fcc83a"></path><path d="M36 31.42l4.71-4.48 4.71 4.48a6.65 6.65 0 0 1-9.42 0z" fill="#efa51f"></path><path d="M36.13 68.32l-.06.06-10.95 11a40.7 40.7 0 0 0 5.38 1.75c.55.14 1.11.27 1.67.39l8.56-8.56 8.56 8.56q.84-.18 1.68-.39a40.56 40.56 0 0 0 5.37-1.75l-11-11L40.79 73z" fill="#7871b3"></path><path d="M36.13 68.32L40.79 73l4.6-4.59a6.59 6.59 0 0 0-9.26-.09z" fill="#433493"></path><path d="M13.69 72.37A42 42 0 0 0 19 76.24l21.73-21.72L36 50zM62.45 76.24a42 42 0 0 0 5.32-3.87L45.44 50l-4.71 4.48z" fill="#7871b3"></path><path d="M36 50l4.71 4.48L45.44 50A6.66 6.66 0 0 0 36 50z" fill="#433493"></path><path d="M68.32 36.13l.06-.06 11-10.95a40.7 40.7 0 0 1 1.75 5.38c.14.55.27 1.11.39 1.67l-8.56 8.56 8.56 8.56q-.18.84-.39 1.68a40.56 40.56 0 0 1-1.75 5.37l-11-11L73 40.79z" fill="#60afe1"></path><path d="M68.32 36.13L73 40.79l-4.59 4.6a6.59 6.59 0 0 1-.09-9.26z" fill="#3d6eb1"></path><path d="M72.37 13.69A42 42 0 0 1 76.24 19L54.52 40.73 50 36zM76.24 62.45a42 42 0 0 1-3.87 5.32L50 45.44l4.48-4.71z" fill="#60afe1"></path><path d="M50 36l4.48 4.71L50 45.44A6.66 6.66 0 0 1 50 36z" fill="#3d6eb1"></path><path d="M13.15 36.13l-.06-.06-11-10.95a42.18 42.18 0 0 0-1.7 5.38c-.14.56-.27 1.12-.39 1.67l8.56 8.56L0 49.29q.18.84.39 1.68a40.56 40.56 0 0 0 1.75 5.37l11-11-4.6-4.6z" fill="#cc6aa8"></path><path d="M13.15 36.13l-4.66 4.66 4.6 4.6a6.61 6.61 0 0 0 .06-9.26z" fill="#c71780"></path><path d="M9.09 13.69A42 42 0 0 0 5.22 19l21.72 21.73L31.42 36zM5.22 62.45a42 42 0 0 0 3.87 5.32l22.33-22.33-4.48-4.71z" fill="#cc6aa8"></path><path d="M31.42 36l-4.48 4.71 4.48 4.71a6.65 6.65 0 0 0 0-9.42z" fill="#c71780"></path></svg></svg> <!----></g></g> <g transform="translate(67,9.549999237060547)"><g data-gra="path-name" fill-rule="" class="tp-name iconsvg-namesvg"><g transform="scale(1)"><g><path d="M0.5-39.3L30.49-39.35 30.22-27.68 22.01-27.35 19.92-1.27 8.31-0.66 8.37-26.75 0.17-26.31 0.5-39.3ZM62.11-22.24L62.11-22.24Q62.11-19.84 61.78-17.45L61.78-17.45Q57.07-17.14 52.42-16.47 47.77-15.8 43.12-15.14L43.12-15.14Q43.84-13.15 45.36-11.97 46.89-10.79 49.01-10.79L49.01-10.79Q50.11-10.79 51.42-11.2 52.73-11.61 54.02-12.23 55.31-12.85 56.5-13.57 57.68-14.28 58.53-14.86L58.53-14.86 57.21-2.37Q56.14-1.54 54.89-0.96 53.63-0.39 52.29-0.03 50.94 0.33 49.56 0.5 48.19 0.66 46.86 0.66L46.86 0.66Q44.14 0.66 41.88-0.08 39.63-0.83 37.8-2.16 35.97-3.49 34.59-5.31 33.22-7.13 32.31-9.27 31.4-11.42 30.93-13.81 30.46-16.21 30.46-18.66L30.46-18.66Q30.46-21.22 30.93-23.78 31.4-26.34 32.35-28.7 33.3-31.07 34.74-33.09 36.19-35.11 38.11-36.63 40.04-38.14 42.48-38.99 44.91-39.85 47.86-39.85L47.86-39.85Q50.3-39.85 52.33-39.17 54.35-38.5 55.93-37.3 57.51-36.1 58.68-34.45 59.85-32.8 60.61-30.83 61.37-28.87 61.74-26.68 62.11-24.49 62.11-22.24ZM51.1-23.06L51.1-23.67Q51.1-24.44 50.94-25.25 50.77-26.06 50.4-26.72 50.03-27.38 49.42-27.81 48.82-28.23 47.91-28.23L47.91-28.23Q46.81-28.23 45.97-27.64 45.13-27.05 44.53-26.16 43.92-25.26 43.53-24.22 43.15-23.17 42.96-22.29L42.96-22.29 51.1-23.06ZM90.15-37.59L90.15-37.59 89.16-25.98Q88.36-26.2 87.59-26.28 86.82-26.36 86.02-26.36L86.02-26.36Q84.07-26.36 82.29-25.87 80.52-25.37 79.16-24.35 77.8-23.34 76.98-21.78 76.17-20.23 76.17-18.11L76.17-18.11Q76.17-16.57 76.63-15.42 77.08-14.28 77.92-13.53 78.76-12.77 79.96-12.38 81.15-12 82.61-12L82.61-12Q83.63-12 84.7-12.2 85.78-12.41 86.85-12.77 87.92-13.13 88.91-13.59 89.9-14.06 90.76-14.58L90.76-14.58 90.32-1.65Q89.24-1.1 88-0.67 86.77-0.25 85.46 0.07 84.15 0.39 82.85 0.55 81.54 0.72 80.35 0.72L80.35 0.72Q76.45 0.72 73.24-0.74 70.04-2.2 67.74-4.72 65.44-7.24 64.17-10.57 62.91-13.9 62.91-17.67L62.91-17.67Q62.91-22.18 64.19-26.09 65.47-30 67.96-32.87 70.45-35.75 74.12-37.38 77.8-39.02 82.56-39.02L82.56-39.02Q84.45-39.02 86.41-38.72 88.36-38.42 90.15-37.59ZM124.58-38.69L125.46-1.1 111.7-0.44 111.59-12.05 105.26-12.05 104.87 0 92.55 0 93.59-38.69 106.69-38.09 105.86-18.33 111.97-18.33 112.03-39.02 124.58-38.69ZM127.8-37.98L142.44-38.75 140.51-1.27 128.9-0.66 127.8-37.98ZM178.82-13.92L178.82-13.92Q178.82-10.81 178.75-7.77 178.68-4.73 178.54-1.65L178.54-1.65 162.69-1.93Q163.52-6.8 164.12-11.65 164.73-16.51 164.73-21.46L164.73-21.46Q164.73-21.82 164.7-22.62 164.67-23.42 164.59-24.42 164.51-25.43 164.36-26.49 164.2-27.55 163.94-28.43 163.68-29.31 163.31-29.87 162.94-30.44 162.42-30.44L162.42-30.44Q161.48-30.44 160.83-29.89 160.19-29.33 159.76-28.47 159.33-27.6 159.09-26.53 158.84-25.45 158.71-24.38 158.59-23.31 158.55-22.36 158.51-21.41 158.51-20.8L158.51-20.8Q158.37-15.93 158.29-11.13 158.21-6.33 158.07-1.43L158.07-1.43 144.03-0.83Q144.58-10.54 145.09-20.14 145.6-29.75 145.9-39.46L145.9-39.46 158.89-40.12 158.78-35.72Q159.55-36.65 160.45-37.48 161.34-38.31 162.36-38.9 163.38-39.49 164.52-39.83 165.66-40.18 166.93-40.18L166.93-40.18Q169.27-40.18 171.03-39.41 172.79-38.64 174.06-37.32 175.32-35.99 176.17-34.19 177.03-32.39 177.55-30.35 178.07-28.32 178.35-26.1 178.62-23.89 178.72-21.74 178.82-19.59 178.82-17.58 178.82-15.58 178.82-13.92Z" transform="translate(-0.17000001668930054, 40.18000030517578)"></path></g> <!----> <!----> <!----> <!----> <!----> <!----> <!----></g></g> <!----></g></g><defs v-gra="od"></defs></svg>